<svg width="363" height="248" viewBox="0 0 363 248" fill="none" xmlns="http://www.w3.org/2000/svg">
<path d="M105.953 207.046L99.1886 213.826L92.4246 220.606L85.6606 227.386L78.8966 234.165C74.5 238.572 69.427 241.865 64.0159 244.073C58.6047 246.272 52.8456 247.376 47.0866 247.376C41.3275 247.376 35.5684 246.272 30.1572 244.073C24.7461 241.875 19.6634 238.572 15.2765 234.165L14.745 233.633L14.2136 233.1L13.6821 232.567L13.1506 232.035C8.75405 227.628 5.46868 222.543 3.26555 217.119C1.06242 211.695 -0.000488281 205.923 -0.000488281 200.15C-0.000488281 194.378 1.10108 188.605 3.29454 183.181C5.48801 177.758 8.78304 172.663 13.1796 168.266L19.9436 161.486L26.7076 154.706L33.4716 147.927L40.2356 141.147L56.6721 157.622L73.1086 174.096L89.5451 190.571L105.953 207.046Z" fill="#FF7748"/>
<path d="M154.238 134.571C154.238 140.876 152.962 146.89 150.653 152.353C148.343 157.816 145.01 162.745 140.884 166.871C136.758 171.007 131.849 174.348 126.399 176.663C120.949 178.978 114.949 180.257 108.658 180.257C102.367 180.257 96.3669 178.978 90.917 176.663C85.4672 174.348 80.5488 171.007 76.4324 166.871C72.3064 162.736 68.9727 157.816 66.6633 152.353C64.3539 146.89 63.0784 140.876 63.0784 134.571C63.0784 128.265 64.3539 122.251 66.6633 116.788C68.9727 111.326 72.3064 106.396 76.4324 102.27C80.5585 98.1438 85.4672 94.7926 90.917 92.4778C96.3669 90.163 102.367 88.8845 108.658 88.8845C114.949 88.8845 120.949 90.163 126.399 92.4778C131.849 94.7926 136.767 98.1341 140.884 102.27C145.01 106.405 148.343 111.326 150.653 116.788C152.962 122.251 154.238 128.256 154.238 134.571Z" fill="#FF9F00"/>
<path d="M256.19 206.048L262.954 212.828L269.718 219.608L276.482 226.388L283.246 233.168C287.643 237.574 292.716 240.867 298.127 243.076C303.538 245.284 309.297 246.378 315.056 246.378C320.815 246.378 326.575 245.274 331.986 243.076C337.397 240.877 342.48 237.574 346.867 233.168L347.398 232.635L347.929 232.102L348.461 231.569L348.992 231.037C353.389 226.63 356.674 221.545 358.877 216.121C361.071 210.697 362.172 204.925 362.172 199.152C362.172 193.38 361.071 187.607 358.877 182.184C356.684 176.76 353.389 171.665 348.992 167.268L342.228 160.488L335.464 153.708L328.7 146.929L321.936 140.149L305.5 156.624L289.063 173.099L272.627 189.574L256.19 206.048Z" fill="#FF7748"/>
<path d="M269.931 88.3708H260.355H250.779H241.193H231.618L224.844 95.1603L218.07 101.95L211.297 108.739L204.523 115.529V125.137V134.735V144.333V153.941L211.297 160.73L218.07 167.52L224.844 174.309L231.618 181.099H241.193H250.779H260.355H269.931L276.714 174.309L283.488 167.52L290.261 160.73L297.035 153.941V144.333V134.735V125.137V115.529L290.261 108.739L283.488 101.95L276.714 95.1603L269.931 88.3708Z" fill="#FF5288"/>
<path d="M180.665 128.265L164.741 112.313L148.826 96.3614L132.912 80.4096L116.997 64.4577L132.912 48.5059L148.826 32.5443L164.741 16.5925L180.656 0.640625L196.58 16.5925L212.495 32.5443L228.409 48.4962L244.324 64.4577L228.409 80.4096L212.495 96.3614L196.58 112.313L180.665 128.265Z" fill="#FF7748"/>
</svg>
